{"title":"Macklemore &amp; Ryan Lewis Ft. Mary Lambert - Same Love [Music ","uid":8832145,"size":161963360,"categoryP":"video","categoryS":"music_videos","magnet":"?xt=urn:btih:308b7d103c88bbd92876117d7e2f7c06150f8304&amp;dn=Macklemore+%26amp%3B+Ryan+Lewis+Ft.+Mary+Lambert+-+Same+Love+%5BMusic+&amp;tr=udp%3A%2F%2Ftracker.openbittorrent.com%3A80&amp;tr=udp%3A%2F%2Fopen.demonii.com%3A1337&amp;tr=udp%3A%2F%2Ftracker.coppersurfer.tk%3A6969&amp;tr=udp%3A%2F%2Fexodus.desync.com%3A6969","seeders":6,"leechers":0,"uploader":"Sbyky","files":-1,"time":1377014216,"description":"[IMG]http://yuq.me/users/18/139/xga7P34Qjw.png[/IMG]\n\nGeneral\nComplete name                            : Macklemore &amp; Ryan Lewis Ft. Mary Lambert - Same Love [Music Video] 1080p [Sbyky].mp4\nFormat                                   : MPEG-4\nFormat profile                           : Base Media / Version 2\nCodec ID                                 : mp42\nFile size                                : 154 MiB\nDuration                                 : 7mn 3s\nOverall bit rate mode                    : Variable\nOverall bit rate                         : 3 060 Kbps\nEncoded date                             : UTC 2013-04-08 11:59:58\nTagged date                              : UTC 2013-04-08 11:59:58\n\nVideo\nID                                       : 1\nFormat                                   : AVC\nFormat/Info                              : Advanced Video Codec\nFormat profile                           : &lt;a class=&quot;__cf_email__&quot; href=&quot;/cdn-cgi/l/email-protection&quot; data-cfemail=&quot;90d8f9f7f8d0dca4bea0&quot;&gt;[email&amp;#160;protected]&lt;/a&gt;&lt;script cf-hash='f9e31' type=&quot;text/javascript&quot;&gt;\n/* &lt;![CDATA[ */!function(){try{var t=&quot;currentScript&quot;in document?document.currentScript:function(){for(var t=document.getElementsByTagName(&quot;script&quot;),e=t.length;e--;)if(t[e].getAttribute(&quot;cf-hash&quot;))return t[e]}();if(t&amp;&amp;t.previousSibling){var e,r,n,i,c=t.previousSibling,a=c.getAttribute(&quot;data-cfemail&quot;);if(a){for(e=&quot;&quot;,r=parseInt(a.substr(0,2),16),n=2;a.length-n;n+=2)i=parseInt(a.substr(n,2),16)^r,e+=String.fromCharCode(i);e=document.createTextNode(e),c.parentNode.replaceChild(e,c)}}}catch(u){}}();/* ]]&gt; */&lt;/script&gt;\nFormat settings, CABAC                   : Yes\nFormat settings, ReFrames                : 1 frame\nFormat settings, GOP                     : M=1, N=48\nCodec ID                                 : avc1\nCodec ID/Info                            : Advanced Video Coding\nDuration                                 : 7mn 3s\nBit rate                                 : 2 866 Kbps\nMaximum bit rate                         : 8 280 Kbps\nWidth                                    : 1 920 pixels\nHeight                                   : 1 080 pixels\nDisplay aspect ratio                     : 16:9\nFrame rate mode                          : Constant\nFrame rate                               : 23.976 fps\nColor space                              : YUV\nChroma subsampling                       : 4:2:0\nBit depth                                : 8 bits\nScan type                                : Progressive\nBits/(Pixel*Frame)                       : 0.058\nStream size                              : 145 MiB (94%)\nTagged date                              : UTC 2013-04-08 12:00:36\n\nAudio\nID                                       : 2\nFormat                                   : AAC\nFormat/Info                              : Advanced Audio Codec\nFormat profile                           : LC\nCodec ID                                 : 40\nDuration                                 : 7mn 3s\nBit rate mode                            : Variable\nBit rate                                 : 192 Kbps\nMaximum bit rate                         : 201 Kbps\nChannel(s)                               : 2 channels\nChannel positions                        : Front: L R\nSampling rate                            : 44.1 KHz\nCompression mode                         : Lossy\nStream size                              : 9.69 MiB (6%)\nTitle                                    : IsoMedia File Produced by Google, 5-11-2011\nEncoded date                             : UTC 2013-04-08 12:00:24\nTagged date                              : UTC 2013-04-08 12:00:36\n\nShared By Sbyky\n[IMG]http://yuq.me/users/18/139/0aq32UMZvX.gif[/IMG]\n[IMG]http://yuq.me/users/18/139/bQg62viaEG.gif[/IMG]","torrent":{"xt":"urn:btih:308b7d103c88bbd92876117d7e2f7c06150f8304","amp;dn":"Macklemore+%26amp%3B+Ryan+Lewis+Ft.+Mary+Lambert+-+Same+Love+%5BMusic+","amp;tr":["udp%3A%2F%2Ftracker.openbittorrent.com%3A80","udp%3A%2F%2Fopen.demonii.com%3A1337","udp%3A%2F%2Ftracker.coppersurfer.tk%3A6969","udp%3A%2F%2Fexodus.desync.com%3A6969"],"infoHash":"308b7d103c88bbd92876117d7e2f7c06150f8304","infoHashBuffer":{"type":"Buffer","data":[48,139,125,16,60,136,187,217,40,118,17,125,126,47,124,6,21,15,131,4]},"announce":[],"urlList":[]}}